# xmcd
#
# Track frame offsets: 
#        150
#        22128
#        45725
#        70545
#        91310
#        118139
#        141067
#        173395
#        194557
#        216846
#
# Disc length: 3203 seconds
#
# Revision: 0
# Processed by: cddbd v1.5.2PL0 Copyright (c) Steve Scherf et al.
# Submitted via: ExactAudioCopy v1.0b3
#
DISCID=8b0c810a
DTITLE=Thanh Tuyen - Con Duong Xua Em Di #1
DYEAR=2002
DGENRE=
TTITLE0=Mot chuyen bay dem
TTITLE1=Vung troi ngay do
TTITLE2=Rung la thap
TTITLE3=Xin thoi gian qua mau (Hai phuong troi cach biet)
TTITLE4=Thanh Tuyen, Quang Binh - Can nha ngoai o
TTITLE5=Hai vi sao lac
TTITLE6=Han Mac Tu
TTITLE7=Pho dem
TTITLE8=Ao anh
TTITLE9=Ta tu trong dem
EXTD=
EXTT0=
EXTT1=
EXTT2=
EXTT3=
EXTT4=
EXTT5=
EXTT6=
EXTT7=
EXTT8=
EXTT9=
PLAYORDER=
